<svg xmlns="http://www.w3.org/2000/svg" width="27" height="32"><path fill="#fff" d="M6.96 6.978.563 13.375h7.863v.848l.107.015c.057.008 2.293.01 4.967.008l4.863-.008v-.863h3.883c2.133 0 3.88-.008 3.88-.018 0-.018-12.58-12.62-12.703-12.725L13.36.577l-6.4 6.4zM8.425 14.938v.637l9.938-.012.008-.475a8.42 8.42 0 0 0-.008-.633l-.017-.155h-9.92v.637zM8.425 16.3v.575l9.938-.012.008-.438c.005-.24 0-.498-.008-.57l-.015-.13H8.426v.575zM8.425 17.663v.538h9.95v-.422c0-.23-.008-.473-.015-.538l-.017-.115H8.425v.538zM8.425 19.023v.5l.133.015c.07.008 2.308.012 4.968.008l4.838-.008.008-.35c.005-.192 0-.42-.008-.508l-.017-.155h-9.92v.497zM8.43 20.392l.008.445h9.925l.008-.313c.005-.172 0-.372-.008-.445l-.015-.13H8.426l.005.442zM8.425 21.762v.413l9.938-.012.008-.25c.005-.137 0-.32-.008-.407l-.017-.155h-9.92v.413zM8.425 23.125v.375h9.95v-.26c0-.142-.008-.31-.015-.375l-.017-.115H8.425v.375zM8.443 24.168c-.01.008-.018.155-.018.325v.308h9.95v-.21c0-.115-.008-.26-.015-.325l-.017-.115h-4.942c-2.717 0-4.95.008-4.957.017zM8.425 25.848v.275l.107.015c.057.008 2.293.01 4.967.008l4.863-.008.008-.15c.005-.082.003-.21-.008-.282l-.015-.13H8.425v.273zM8.425 27.225v.25l9.938-.012.008-.087a1.348 1.348 0 0 0-.008-.245l-.017-.155h-9.92v.25zM8.425 28.575v.2h4.963c4.417 0 4.965-.005 4.978-.038a.631.631 0 0 0-.003-.2l-.017-.163h-9.92v.2zM8.425 29.95v.15h9.95v-.058c0-.03-.008-.098-.015-.15l-.017-.093H8.425v.15zM8.425 31.31v.108l.115.017c.172.023 9.805.017 9.82-.005a.406.406 0 0 0-.003-.125l-.015-.105H8.424v.11z"/></svg>