<!-- Generated by IcoMoon.io -->
<svg version="1.1" xmlns="http://www.w3.org/2000/svg" width="27" height="32" viewBox="0 0 27 32">
<title>icon-arrow</title>
<path fill="#fff" d="M6.96 6.978l-6.397 6.397h7.863v0.848l0.107 0.015c0.057 0.008 2.293 0.010 4.967 0.008l4.863-0.008v-0.863h3.883c2.133 0 3.88-0.008 3.88-0.018 0-0.018-12.58-12.62-12.703-12.725l-0.063-0.055-6.4 6.4z"></path>
<path fill="#fff" d="M8.425 14.938v0.637l9.938-0.012 0.008-0.475c0.005-0.262 0-0.545-0.008-0.633l-0.017-0.155h-9.92v0.637z"></path>
<path fill="#fff" d="M8.425 16.3v0.575l9.938-0.012 0.008-0.438c0.005-0.24 0-0.498-0.008-0.57l-0.015-0.13h-9.922v0.575z"></path>
<path fill="#fff" d="M8.425 17.663v0.538h9.95v-0.422c0-0.23-0.008-0.473-0.015-0.538l-0.017-0.115h-9.918v0.538z"></path>
<path fill="#fff" d="M8.425 19.023v0.5l0.133 0.015c0.070 0.008 2.308 0.012 4.968 0.008l4.838-0.008 0.008-0.35c0.005-0.192 0-0.42-0.008-0.508l-0.017-0.155h-9.92v0.497z"></path>
<path fill="#fff" d="M8.43 20.392l0.008 0.445h9.925l0.008-0.313c0.005-0.172 0-0.372-0.008-0.445l-0.015-0.13h-9.922l0.005 0.442z"></path>
<path fill="#fff" d="M8.425 21.762v0.413l9.938-0.012 0.008-0.25c0.005-0.137 0-0.32-0.008-0.407l-0.017-0.155h-9.92v0.413z"></path>
<path fill="#fff" d="M8.425 23.125v0.375h9.95v-0.26c0-0.142-0.008-0.31-0.015-0.375l-0.017-0.115h-9.918v0.375z"></path>
<path fill="#fff" d="M8.443 24.168c-0.010 0.008-0.018 0.155-0.018 0.325v0.308h9.95v-0.21c0-0.115-0.008-0.26-0.015-0.325l-0.017-0.115h-4.942c-2.717 0-4.95 0.008-4.957 0.017z"></path>
<path fill="#fff" d="M8.425 25.848v0.275l0.107 0.015c0.057 0.008 2.293 0.010 4.967 0.008l4.863-0.008 0.008-0.15c0.005-0.082 0.003-0.21-0.008-0.282l-0.015-0.13h-9.922v0.273z"></path>
<path fill="#fff" d="M8.425 27.225v0.25l9.938-0.012 0.008-0.087c0.005-0.047 0.003-0.157-0.008-0.245l-0.017-0.155h-9.92v0.25z"></path>
<path fill="#fff" d="M8.425 28.575v0.2h4.963c4.417 0 4.965-0.005 4.978-0.038 0.010-0.023 0.008-0.113-0.003-0.2l-0.017-0.163h-9.92v0.2z"></path>
<path fill="#fff" d="M8.425 29.95v0.15h9.95v-0.058c0-0.030-0.008-0.098-0.015-0.15l-0.017-0.093h-9.918v0.15z"></path>
<path fill="#fff" d="M8.425 31.31v0.108l0.115 0.017c0.172 0.023 9.805 0.017 9.82-0.005 0.005-0.010 0.005-0.067-0.003-0.125l-0.015-0.105h-9.918v0.11z"></path>
</svg>
